<?xml version="1.0" standalone="no"?>
<!DOCTYPE svg PUBLIC "-//W3C//DTD SVG 20010904//EN"
 "http://www.w3.org/TR/2001/REC-SVG-20010904/DTD/svg10.dtd">
<svg version="1.0" xmlns="http://www.w3.org/2000/svg"
 width="505.000000pt" height="100.000000pt" viewBox="0 0 505.000000 100.000000"
 preserveAspectRatio="xMidYMid meet">

<g transform="translate(0.000000,100.000000) scale(0.100000,-0.100000)"
fill="#000000" stroke="none">
<path d="M314 861 c-44 -27 -64 -59 -64 -104 0 -97 111 -156 207 -110 91 43
96 161 10 213 -42 26 -112 26 -153 1z"/>
<path d="M130 450 l0 -310 115 0 115 0 0 224 0 223 -45 17 c-52 20 -102 76
-111 123 -6 30 -10 33 -40 33 l-34 0 0 -310z"/>
<path d="M570 720 c-14 -51 -68 -106 -120 -121 l-40 -12 0 -224 0 -223 120 0
120 0 0 310 0 310 -35 0 c-32 0 -35 -3 -45 -40z"/>
<path d="M680 450 l0 -310 108 0 107 0 -3 135 -3 135 70 0 71 0 0 -135 0 -135
108 0 107 0 0 310 0 310 -107 0 -108 0 0 -130 0 -130 -71 0 -70 0 3 130 3 130
-107 0 -108 0 0 -310z"/>
<path d="M1275 450 l0 -310 105 0 105 0 -3 127 c-2 71 0 124 5 120 4 -4 24
-61 43 -125 l35 -117 117 -3 117 -3 -50 113 c-80 177 -77 162 -31 212 30 32
42 56 47 88 14 93 -34 176 -113 198 -20 5 -113 10 -207 10 l-170 0 0 -310z
m256 211 c21 -17 24 -28 24 -85 0 -54 -4 -69 -22 -87 -12 -13 -28 -19 -37 -16
-13 5 -16 24 -16 100 0 115 6 125 51 88z"/>
<path d="M1798 728 c5 -7 12 -24 14 -38 3 -20 5 -18 9 13 4 32 2 37 -14 37
-14 0 -17 -3 -9 -12z"/>
<path d="M1848 708 c-5 -28 -4 -29 9 -13 15 22 16 32 4 39 -5 3 -11 -8 -13
-26z"/>
<path d="M1894 723 c-4 -13 -10 -20 -15 -17 -5 3 -9 -2 -9 -10 0 -24 18 -19
26 7 8 21 8 21 15 -8 6 -27 7 -28 8 -5 0 14 -4 32 -9 40 -8 13 -11 11 -16 -7z"/>
<path d="M3490 590 c0 -82 3 -100 15 -100 12 0 15 18 15 100 0 82 -3 100 -15
100 -12 0 -15 -18 -15 -100z"/>
<path d="M4844 673 c-3 -10 -10 -26 -15 -35 -6 -12 -6 -18 1 -18 6 0 10 -28
10 -65 0 -51 3 -65 15 -65 12 0 15 14 15 65 0 58 2 65 20 65 11 0 20 5 20 10
0 6 -9 10 -20 10 -29 0 -27 37 3 43 16 3 13 5 -11 6 -23 1 -34 -4 -38 -16z"/>
<path d="M2050 585 c0 -78 3 -95 15 -95 12 0 15 17 15 95 0 78 -3 95 -15 95
-12 0 -15 -17 -15 -95z"/>
<path d="M3640 585 c0 -78 3 -95 15 -95 12 0 15 17 15 95 0 78 -3 95 -15 95
-12 0 -15 -17 -15 -95z"/>
<path d="M2276 645 c-9 -14 -12 -25 -6 -25 5 0 10 -22 10 -49 0 -27 3 -56 6
-65 7 -17 44 -22 44 -6 0 6 -4 10 -10 10 -15 0 -13 107 3 114 10 5 10 7 0 12
-7 3 -13 12 -13 20 0 22 -16 17 -34 -11z"/>
<path d="M2900 659 c0 -7 -8 -18 -17 -25 -17 -13 -17 -13 0 -14 14 0 17 -10
17 -65 0 -58 2 -65 19 -65 11 0 23 5 26 10 3 6 -1 10 -9 10 -13 0 -16 12 -16
54 0 34 5 57 13 60 10 5 10 7 0 12 -7 3 -13 12 -13 20 0 8 -4 14 -10 14 -5 0
-10 -5 -10 -11z"/>
<path d="M2970 660 c0 -5 7 -10 15 -10 8 0 15 5 15 10 0 6 -7 10 -15 10 -8 0
-15 -4 -15 -10z"/>
<path d="M3986 649 c-11 -14 -14 -24 -8 -28 6 -4 12 -33 14 -66 3 -53 5 -60
26 -63 12 -2 22 1 22 7 0 6 -4 11 -10 11 -15 0 -13 107 3 114 10 5 10 7 0 12
-7 3 -13 12 -13 20 0 20 -13 17 -34 -7z"/>
<path d="M4070 660 c0 -5 7 -10 15 -10 8 0 15 5 15 10 0 6 -7 10 -15 10 -8 0
-15 -4 -15 -10z"/>
<path d="M4136 649 c-11 -14 -14 -24 -8 -28 6 -4 12 -33 14 -66 3 -53 5 -60
26 -63 12 -2 22 1 22 7 0 6 -4 11 -10 11 -15 0 -13 107 3 114 10 5 10 7 0 12
-7 3 -13 12 -13 20 0 20 -13 17 -34 -7z"/>
<path d="M4376 649 c-11 -14 -14 -24 -8 -28 6 -4 12 -33 14 -66 3 -53 5 -60
26 -63 12 -2 22 1 22 7 0 6 -4 11 -10 11 -15 0 -13 107 3 114 10 5 10 7 0 12
-7 3 -13 12 -13 20 0 20 -13 17 -34 -7z"/>
<path d="M2127 633 c-4 -3 -7 -37 -7 -75 0 -52 3 -68 14 -68 10 0 15 17 18 63
5 79 -3 103 -25 80z"/>
<path d="M2165 631 c-3 -5 5 -11 17 -13 21 -3 23 -9 26 -65 2 -47 7 -63 17
-63 19 0 21 120 3 138 -14 14 -54 16 -63 3z"/>
<path d="M2370 620 c-27 -27 -27 -83 1 -111 23 -23 89 -24 97 -1 3 11 0 12
-16 3 -11 -6 -25 -11 -31 -11 -16 0 -41 30 -41 51 0 16 7 19 51 19 48 0 50 1
44 23 -15 48 -70 62 -105 27z m68 -2 c23 -23 13 -38 -23 -38 -22 0 -35 5 -35
13 0 16 20 37 35 37 6 0 16 -5 23 -12z"/>
<path d="M2510 563 c0 -42 4 -73 10 -73 6 0 10 23 10 50 0 37 5 55 20 70 26
26 26 27 -10 27 l-30 0 0 -74z"/>
<path d="M2600 565 c0 -43 4 -75 10 -75 6 0 10 24 10 53 0 55 12 77 42 77 14
0 18 -11 20 -62 2 -38 8 -63 16 -66 9 -3 12 15 12 67 0 68 -1 71 -27 77 -14 4
-34 2 -45 -5 -11 -7 -18 -7 -18 -1 0 5 -4 10 -10 10 -6 0 -10 -32 -10 -75z"/>
<path d="M2765 631 c-3 -6 7 -9 22 -8 41 3 37 -29 -7 -51 -62 -31 -43 -99 21
-75 16 6 29 7 29 2 0 -5 9 -9 20 -9 11 0 20 5 20 10 0 6 -4 10 -10 10 -6 0
-10 26 -10 59 0 44 -4 60 -16 65 -24 9 -62 7 -69 -3z m51 -107 c-3 -8 -15 -14
-26 -14 -29 0 -27 44 3 57 18 9 23 7 25 -9 2 -11 1 -26 -2 -34z"/>
<path d="M2977 633 c-4 -3 -7 -37 -7 -75 0 -54 3 -68 15 -68 12 0 15 15 15 75
0 69 -6 86 -23 68z"/>
<path d="M3055 620 c-12 -13 -19 -35 -18 -56 3 -99 127 -98 127 1 0 66 -69
100 -109 55z m75 -9 c14 -27 13 -74 -3 -95 -31 -43 -80 18 -61 76 12 41 47 51
64 19z"/>
<path d="M3200 564 c0 -56 3 -75 13 -72 7 3 14 29 17 64 5 55 7 59 30 59 24 0
25 -3 28 -62 4 -86 22 -80 22 7 0 67 -1 70 -27 76 -14 4 -34 2 -45 -5 -11 -7
-18 -7 -18 -1 0 5 -4 10 -10 10 -6 0 -10 -32 -10 -76z"/>
<path d="M3367 633 c-15 -14 -6 -23 14 -13 15 9 24 8 35 -1 17 -14 10 -23 -37
-47 -37 -18 -48 -44 -29 -67 15 -18 52 -19 68 -3 9 9 12 9 12 0 0 -7 9 -12 20
-12 11 0 20 5 20 10 0 6 -4 10 -10 10 -6 0 -10 26 -10 59 0 44 -4 60 -16 65
-21 8 -59 8 -67 -1z m63 -81 c0 -23 -19 -42 -42 -42 -21 0 -24 30 -6 48 18 18
48 15 48 -6z"/>
<path d="M3710 563 c0 -57 3 -73 15 -73 10 0 15 16 17 63 3 59 4 62 28 62 24
0 25 -3 28 -63 4 -78 26 -81 30 -4 4 76 -7 92 -68 89 l-50 -2 0 -72z"/>
<path d="M3872 628 c-22 -22 -13 -48 23 -69 39 -23 42 -31 19 -50 -13 -10 -19
-10 -36 0 -16 10 -19 10 -16 -1 6 -17 55 -23 74 -7 26 21 17 55 -22 78 -31 18
-34 24 -23 37 8 10 21 13 37 9 15 -4 21 -2 17 5 -9 14 -58 13 -73 -2z"/>
<path d="M4070 565 c0 -60 3 -75 15 -75 12 0 15 15 15 75 0 60 -3 75 -15 75
-12 0 -15 -15 -15 -75z"/>
<path d="M4220 578 c0 -36 5 -69 12 -76 15 -15 51 -15 66 0 9 9 12 9 12 0 0
-7 7 -12 15 -12 13 0 15 12 13 72 -4 94 -26 106 -30 16 -3 -60 -4 -63 -28 -63
-23 0 -25 4 -30 59 -7 85 -30 88 -30 4z"/>
<path d="M4472 624 c-17 -12 -22 -25 -22 -59 0 -34 5 -47 22 -59 26 -18 66
-21 88 -5 11 7 5 8 -21 4 -38 -7 -51 2 -63 43 -7 21 -5 22 43 22 43 0 51 3 51
18 0 24 -31 52 -56 52 -11 0 -30 -7 -42 -16z m52 0 c9 -3 16 -15 16 -25 0 -14
-7 -19 -30 -19 -31 0 -39 17 -18 38 14 14 12 14 32 6z"/>
<path d="M4691 614 c-12 -15 -21 -37 -21 -49 0 -35 37 -75 69 -75 38 0 61 28
61 77 0 71 -67 100 -109 47z m78 -16 c18 -31 7 -74 -22 -92 -36 -22 -63 56
-36 105 14 26 40 21 58 -13z"/>
<path d="M2050 235 c0 -78 3 -95 15 -95 11 0 15 12 15 45 l0 45 40 0 40 0 0
-45 c0 -33 4 -45 15 -45 12 0 15 17 15 95 0 78 -3 95 -15 95 -11 0 -15 -12
-15 -46 l0 -45 -37 3 c-37 3 -38 4 -41 46 -2 28 -8 42 -18 42 -11 0 -14 -19
-14 -95z"/>
<path d="M2992 238 c2 -62 7 -93 16 -96 8 -2 12 10 12 40 l1 43 37 -43 c49
-56 74 -56 32 1 -31 42 -31 42 -10 56 26 18 27 67 1 81 -11 5 -36 10 -56 10
l-36 0 3 -92z m82 55 c9 -22 -12 -53 -34 -53 -16 0 -20 7 -20 33 0 19 3 36 6
39 9 10 42 -3 48 -19z"/>
<path d="M2233 275 c-7 -19 1 -113 11 -123 4 -4 30 -7 57 -8 l49 -1 0 74 c0
57 -3 73 -15 73 -10 0 -15 -16 -17 -62 -3 -60 -4 -63 -28 -63 -24 0 -25 3 -28
63 -3 59 -16 80 -29 47z"/>
<path d="M2390 213 c0 -57 3 -73 15 -73 10 0 15 16 17 63 3 56 5 62 26 65 21
3 22 0 22 -62 0 -51 3 -66 15 -66 10 0 15 16 17 62 2 52 6 63 22 66 26 5 36
-15 36 -75 0 -30 5 -53 10 -53 7 0 10 27 8 73 l-3 72 -92 1 -93 0 0 -73z"/>
<path d="M2630 280 c-11 -8 -6 -9 20 -8 52 4 52 -24 0 -45 -36 -14 -41 -20
-38 -43 4 -35 31 -53 57 -37 13 8 22 8 29 1 6 -6 19 -7 29 -3 12 5 14 9 6 12
-8 3 -13 24 -13 57 0 29 -5 57 -12 64 -14 14 -57 15 -78 2z m56 -106 c-7 -18
-42 -18 -49 -1 -6 17 2 30 28 45 17 9 21 8 23 -9 2 -11 1 -27 -2 -35z"/>
<path d="M2760 213 c0 -57 3 -73 15 -73 10 0 15 16 17 63 3 59 4 62 28 62 24
0 25 -3 28 -63 4 -78 26 -81 30 -4 4 76 -7 92 -68 89 l-50 -2 0 -72z"/>
<path d="M3150 270 c-43 -43 -13 -130 44 -130 31 0 56 10 56 21 0 6 -8 5 -19
-1 -11 -5 -24 -10 -30 -10 -16 0 -41 30 -41 51 0 16 7 19 51 19 48 0 50 1 44
23 -15 48 -70 62 -105 27z m68 -2 c23 -23 13 -38 -23 -38 -22 0 -35 5 -35 13
0 16 20 37 35 37 6 0 16 -5 23 -12z"/>
<path d="M3292 278 c-22 -22 -13 -48 23 -69 19 -12 35 -27 35 -34 0 -19 -28
-27 -52 -14 -16 9 -19 8 -16 -3 3 -7 19 -14 36 -16 24 -2 34 2 48 22 14 22 14
29 3 42 -7 9 -24 20 -37 25 -33 13 -25 45 11 42 15 -1 25 2 22 8 -9 13 -59 11
-73 -3z"/>
<path d="M3417 272 c-24 -26 -22 -87 3 -112 42 -42 98 -18 107 47 4 33 1 45
-16 62 -26 26 -72 27 -94 3z m71 -4 c16 -16 15 -80 -2 -103 -17 -24 -43 -14
-56 21 -22 56 22 118 58 82z"/>
<path d="M3560 227 c0 -36 5 -68 12 -75 15 -15 55 -16 64 -1 4 8 9 7 15 -2 6
-10 11 -11 19 -3 15 15 9 136 -7 142 -9 3 -13 -12 -13 -51 0 -57 -16 -84 -45
-73 -11 4 -15 21 -15 66 0 47 -3 60 -15 60 -12 0 -15 -14 -15 -63z"/>
<path d="M3720 213 c0 -42 4 -73 10 -73 6 0 10 25 10 55 0 44 4 57 20 67 28
18 25 25 -10 25 l-30 0 0 -74z"/>
<path d="M3816 274 c-36 -36 -26 -116 16 -130 24 -7 68 3 68 17 0 6 -7 6 -21
-1 -29 -16 -59 12 -59 56 0 42 25 67 57 59 16 -4 22 -2 18 5 -10 15 -62 12
-79 -6z"/>
<path d="M3937 272 c-24 -26 -22 -87 3 -112 22 -22 66 -26 90 -9 12 8 9 9 -13
5 -36 -8 -63 7 -69 39 -5 24 -3 25 43 25 42 0 49 3 49 19 0 47 -71 69 -103 33z
m72 -11 c13 -23 5 -31 -31 -31 -30 0 -37 17 -16 38 17 17 36 15 47 -7z"/>
<path d="M4082 278 c-22 -22 -13 -48 23 -69 39 -23 42 -31 19 -50 -12 -10 -20
-10 -34 -1 -11 6 -22 8 -24 3 -14 -22 65 -28 84 -7 16 21 9 59 -15 71 -44 22
-47 26 -34 42 8 9 21 12 37 8 15 -4 21 -2 17 5 -9 14 -58 13 -73 -2z"/>
</g>
</svg>
